# xmcd CD database file
# Copyright (C) 1995-1998 Ti Kan
#
# Track frame offsets:
#	150
#	12345
#	22680
#	39945
#	53360
#	68715
#	83425
#	104155
#	116565
#	131410
#	147685
#	159835
#	176155
#	191665
#
# Disc length: 2849 seconds
#
# Revision: 2
# Processed by: cddbd v1.4PL0 Copyright (c) Steve Scherf et al.
# Submitted via: CDex 1.30Release
#
DISCID=ae0b1f0e
DTITLE=Grupo Gaitaço - Amor Infinito
DYEAR=1999
DGENRE=Country
TTITLE0=Xote No Sul
TTITLE1=Salão Do Puxa Faca
TTITLE2=Sonhos
TTITLE3=Fandango De Galpão
TTITLE4=Vamo Fandangueá
TTITLE5=Costume Do Rincão
TTITLE6=Potros
TTITLE7=Bailando A Bailanta
TTITLE8=Pachola
TTITLE9=Surungo Campesino
TTITLE10=Xixo Bruto
TTITLE11=Dá-lhe Gaitaço
TTITLE12=Amor Infinito
TTITLE13=Voltando Do Fandango
EXTD=YEAR: 1999 ID3G:   2
EXTT0=
EXTT1=
EXTT2=
EXTT3=
EXTT4=
EXTT5=
EXTT6=
EXTT7=
EXTT8=
EXTT9=
EXTT10=
EXTT11=
EXTT12=
EXTT13=
PLAYORDER=
